<svg xmlns="http://www.w3.org/2000/svg" xmlns:xlink="http://www.w3.org/1999/xlink" width="320" zoomAndPan="magnify" viewBox="0 0 240 98.999996" height="132" preserveAspectRatio="xMidYMid meet" version="1.0"><defs><g/></defs><g fill="#000000" fill-opacity="1"><g transform="translate(26.462848, 60.695866)"><g><path d="M 10.0625 0 L 1.984375 0 L 1.984375 -22.796875 L 10.125 -22.796875 C 12.414062 -22.796875 14.390625 -22.335938 16.046875 -21.421875 C 17.710938 -20.515625 18.988281 -19.210938 19.875 -17.515625 C 20.769531 -15.816406 21.21875 -13.785156 21.21875 -11.421875 C 21.21875 -9.046875 20.769531 -7.003906 19.875 -5.296875 C 18.976562 -3.585938 17.695312 -2.273438 16.03125 -1.359375 C 14.363281 -0.453125 12.375 0 10.0625 0 Z M 6.796875 -4.125 L 9.859375 -4.125 C 12.003906 -4.125 13.628906 -4.703125 14.734375 -5.859375 C 15.847656 -7.023438 16.40625 -8.878906 16.40625 -11.421875 C 16.40625 -13.953125 15.847656 -15.789062 14.734375 -16.9375 C 13.628906 -18.09375 12.007812 -18.671875 9.875 -18.671875 L 6.796875 -18.671875 Z M 6.796875 -4.125 "/></g></g></g><g fill="#000000" fill-opacity="1"><g transform="translate(47.160528, 60.695866)"><g><path d="M 6.875 -11.21875 C 5.195312 -11.21875 3.804688 -11.597656 2.703125 -12.359375 C 1.609375 -13.128906 1.046875 -14.128906 1.015625 -15.359375 L 4.515625 -15.359375 C 4.546875 -14.953125 4.785156 -14.628906 5.234375 -14.390625 C 5.679688 -14.160156 6.226562 -14.046875 6.875 -14.046875 C 7.539062 -14.046875 8.109375 -14.175781 8.578125 -14.4375 C 9.046875 -14.707031 9.28125 -15.078125 9.28125 -15.546875 C 9.28125 -16.003906 9.046875 -16.375 8.578125 -16.65625 C 8.109375 -16.945312 7.457031 -17.09375 6.625 -17.09375 L 5.046875 -17.09375 L 5.046875 -19.625 L 6.625 -19.625 C 7.3125 -19.625 7.863281 -19.757812 8.28125 -20.03125 C 8.707031 -20.3125 8.921875 -20.671875 8.921875 -21.109375 C 8.921875 -21.546875 8.738281 -21.894531 8.375 -22.15625 C 8.007812 -22.414062 7.523438 -22.546875 6.921875 -22.546875 C 6.296875 -22.546875 5.757812 -22.421875 5.3125 -22.171875 C 4.863281 -21.921875 4.628906 -21.585938 4.609375 -21.171875 L 1.328125 -21.171875 C 1.335938 -21.984375 1.59375 -22.691406 2.09375 -23.296875 C 2.59375 -23.898438 3.265625 -24.375 4.109375 -24.71875 C 4.953125 -25.070312 5.898438 -25.25 6.953125 -25.25 C 8.546875 -25.25 9.828125 -24.867188 10.796875 -24.109375 C 11.765625 -23.347656 12.25 -22.421875 12.25 -21.328125 C 12.25 -20.523438 11.96875 -19.878906 11.40625 -19.390625 C 10.851562 -18.910156 10.191406 -18.617188 9.421875 -18.515625 L 9.421875 -18.40625 C 10.503906 -18.300781 11.34375 -17.972656 11.9375 -17.421875 C 12.539062 -16.878906 12.84375 -16.175781 12.84375 -15.3125 C 12.84375 -14.507812 12.582031 -13.800781 12.0625 -13.1875 C 11.550781 -12.570312 10.847656 -12.085938 9.953125 -11.734375 C 9.054688 -11.390625 8.03125 -11.21875 6.875 -11.21875 Z M 6.875 -11.21875 "/></g></g></g><g fill="#000000" fill-opacity="1"><g transform="translate(58.930295, 60.695866)"><g/></g></g><g fill="#000000" fill-opacity="1"><g transform="translate(64.098755, 60.695866)"><g><path d="M 7.109375 0 L 0.59375 -22.796875 L 5.859375 -22.796875 L 9.625 -6.953125 L 9.8125 -6.953125 L 13.984375 -22.796875 L 18.484375 -22.796875 L 22.640625 -6.921875 L 22.84375 -6.921875 L 26.609375 -22.796875 L 31.875 -22.796875 L 25.359375 0 L 20.65625 0 L 16.3125 -14.90625 L 16.140625 -14.90625 L 11.8125 0 Z M 7.109375 0 "/></g></g></g><g fill="#000000" fill-opacity="1"><g transform="translate(92.622145, 60.695866)"><g><path d="M 9.6875 0.328125 C 7.9375 0.328125 6.425781 -0.0234375 5.15625 -0.734375 C 3.882812 -1.453125 2.90625 -2.46875 2.21875 -3.78125 C 1.539062 -5.101562 1.203125 -6.664062 1.203125 -8.46875 C 1.203125 -10.226562 1.539062 -11.769531 2.21875 -13.09375 C 2.90625 -14.425781 3.867188 -15.460938 5.109375 -16.203125 C 6.359375 -16.941406 7.820312 -17.3125 9.5 -17.3125 C 11 -17.3125 12.351562 -16.992188 13.5625 -16.359375 C 14.78125 -15.722656 15.742188 -14.757812 16.453125 -13.46875 C 17.171875 -12.1875 17.53125 -10.578125 17.53125 -8.640625 L 17.53125 -7.328125 L 5.890625 -7.328125 C 5.890625 -6.046875 6.238281 -5.035156 6.9375 -4.296875 C 7.632812 -3.566406 8.578125 -3.203125 9.765625 -3.203125 C 10.554688 -3.203125 11.238281 -3.367188 11.8125 -3.703125 C 12.394531 -4.035156 12.804688 -4.53125 13.046875 -5.1875 L 17.4375 -4.890625 C 17.09375 -3.304688 16.242188 -2.039062 14.890625 -1.09375 C 13.535156 -0.144531 11.800781 0.328125 9.6875 0.328125 Z M 5.890625 -10.28125 L 13.0625 -10.28125 C 13.0625 -11.289062 12.738281 -12.125 12.09375 -12.78125 C 11.445312 -13.445312 10.609375 -13.78125 9.578125 -13.78125 C 8.515625 -13.78125 7.644531 -13.4375 6.96875 -12.75 C 6.300781 -12.070312 5.941406 -11.25 5.890625 -10.28125 Z M 5.890625 -10.28125 "/></g></g></g><g fill="#000000" fill-opacity="1"><g transform="translate(109.256623, 60.695866)"><g><path d="M 1.984375 0 L 1.984375 -22.796875 L 6.71875 -22.796875 L 6.71875 -14.21875 L 6.875 -14.21875 C 7.082031 -14.6875 7.382812 -15.15625 7.78125 -15.625 C 8.175781 -16.101562 8.695312 -16.503906 9.34375 -16.828125 C 9.988281 -17.148438 10.785156 -17.3125 11.734375 -17.3125 C 12.984375 -17.3125 14.128906 -16.988281 15.171875 -16.34375 C 16.222656 -15.695312 17.066406 -14.722656 17.703125 -13.421875 C 18.335938 -12.117188 18.65625 -10.488281 18.65625 -8.53125 C 18.65625 -6.625 18.347656 -5.015625 17.734375 -3.703125 C 17.117188 -2.390625 16.285156 -1.394531 15.234375 -0.71875 C 14.191406 -0.0507812 13.019531 0.28125 11.71875 0.28125 C 10.800781 0.28125 10.019531 0.128906 9.375 -0.171875 C 8.738281 -0.484375 8.21875 -0.867188 7.8125 -1.328125 C 7.40625 -1.796875 7.09375 -2.265625 6.875 -2.734375 L 6.65625 -2.734375 L 6.65625 0 Z M 6.625 -8.546875 C 6.625 -7.023438 6.9375 -5.800781 7.5625 -4.875 C 8.1875 -3.957031 9.070312 -3.5 10.21875 -3.5 C 11.382812 -3.5 12.273438 -3.96875 12.890625 -4.90625 C 13.503906 -5.84375 13.8125 -7.054688 13.8125 -8.546875 C 13.8125 -10.035156 13.503906 -11.238281 12.890625 -12.15625 C 12.273438 -13.082031 11.382812 -13.546875 10.21875 -13.546875 C 9.070312 -13.546875 8.1875 -13.09375 7.5625 -12.1875 C 6.9375 -11.289062 6.625 -10.078125 6.625 -8.546875 Z M 6.625 -8.546875 "/></g></g></g><g fill="#000000" fill-opacity="1"><g transform="translate(127.071102, 60.695866)"><g><path d="M 16.109375 -12.21875 L 11.78125 -11.953125 C 11.65625 -12.503906 11.351562 -12.972656 10.875 -13.359375 C 10.394531 -13.753906 9.742188 -13.953125 8.921875 -13.953125 C 8.179688 -13.953125 7.554688 -13.796875 7.046875 -13.484375 C 6.535156 -13.179688 6.285156 -12.773438 6.296875 -12.265625 C 6.285156 -11.859375 6.445312 -11.515625 6.78125 -11.234375 C 7.113281 -10.953125 7.675781 -10.722656 8.46875 -10.546875 L 11.5625 -9.921875 C 14.851562 -9.253906 16.5 -7.710938 16.5 -5.296875 C 16.5 -4.179688 16.171875 -3.195312 15.515625 -2.34375 C 14.859375 -1.5 13.957031 -0.84375 12.8125 -0.375 C 11.675781 0.09375 10.367188 0.328125 8.890625 0.328125 C 6.628906 0.328125 4.828125 -0.140625 3.484375 -1.078125 C 2.140625 -2.023438 1.359375 -3.316406 1.140625 -4.953125 L 5.796875 -5.203125 C 5.941406 -4.503906 6.285156 -3.972656 6.828125 -3.609375 C 7.367188 -3.253906 8.0625 -3.078125 8.90625 -3.078125 C 9.738281 -3.078125 10.40625 -3.238281 10.90625 -3.5625 C 11.414062 -3.894531 11.675781 -4.3125 11.6875 -4.8125 C 11.664062 -5.664062 10.9375 -6.234375 9.5 -6.515625 L 6.53125 -7.109375 C 3.21875 -7.773438 1.570312 -9.40625 1.59375 -12 C 1.582031 -13.644531 2.238281 -14.941406 3.5625 -15.890625 C 4.882812 -16.835938 6.644531 -17.3125 8.84375 -17.3125 C 11 -17.3125 12.695312 -16.851562 13.9375 -15.9375 C 15.1875 -15.03125 15.910156 -13.789062 16.109375 -12.21875 Z M 16.109375 -12.21875 "/></g></g></g><g fill="#000000" fill-opacity="1"><g transform="translate(142.581244, 60.695866)"><g><path d="M 10.984375 -17.09375 L 10.984375 -13.53125 L 7.765625 -13.53125 L 7.765625 -5.25 C 7.765625 -4.601562 7.910156 -4.160156 8.203125 -3.921875 C 8.503906 -3.691406 8.894531 -3.578125 9.375 -3.578125 C 9.59375 -3.578125 9.8125 -3.597656 10.03125 -3.640625 C 10.257812 -3.679688 10.429688 -3.710938 10.546875 -3.734375 L 11.296875 -0.21875 C 11.054688 -0.132812 10.722656 -0.046875 10.296875 0.046875 C 9.867188 0.148438 9.34375 0.210938 8.71875 0.234375 C 7 0.304688 5.617188 -0.0625 4.578125 -0.875 C 3.535156 -1.695312 3.019531 -2.945312 3.03125 -4.625 L 3.03125 -13.53125 L 0.6875 -13.53125 L 0.6875 -17.09375 L 3.03125 -17.09375 L 3.03125 -21.1875 L 7.765625 -21.1875 L 7.765625 -17.09375 Z M 10.984375 -17.09375 "/></g></g></g><g fill="#000000" fill-opacity="1"><g transform="translate(152.658933, 60.695866)"><g><path d="M 12.859375 -7.28125 L 12.859375 -17.09375 L 17.59375 -17.09375 L 17.59375 0 L 13.046875 0 L 13.046875 -3.109375 L 12.859375 -3.109375 C 12.472656 -2.109375 11.832031 -1.300781 10.9375 -0.6875 C 10.050781 -0.0820312 8.96875 0.21875 7.6875 0.21875 C 5.957031 0.21875 4.5625 -0.351562 3.5 -1.5 C 2.4375 -2.644531 1.898438 -4.210938 1.890625 -6.203125 L 1.890625 -17.09375 L 6.640625 -17.09375 L 6.640625 -7.0625 C 6.640625 -6.050781 6.90625 -5.25 7.4375 -4.65625 C 7.976562 -4.070312 8.695312 -3.78125 9.59375 -3.78125 C 10.445312 -3.78125 11.203125 -4.078125 11.859375 -4.671875 C 12.523438 -5.265625 12.859375 -6.132812 12.859375 -7.28125 Z M 12.859375 -7.28125 "/></g></g></g><g fill="#000000" fill-opacity="1"><g transform="translate(170.050392, 60.695866)"><g><path d="M 8.1875 0.28125 C 6.894531 0.28125 5.722656 -0.0507812 4.671875 -0.71875 C 3.628906 -1.394531 2.796875 -2.390625 2.171875 -3.703125 C 1.554688 -5.015625 1.25 -6.625 1.25 -8.53125 C 1.25 -10.488281 1.566406 -12.117188 2.203125 -13.421875 C 2.835938 -14.722656 3.679688 -15.695312 4.734375 -16.34375 C 5.785156 -16.988281 6.9375 -17.3125 8.1875 -17.3125 C 9.132812 -17.3125 9.929688 -17.148438 10.578125 -16.828125 C 11.222656 -16.503906 11.742188 -16.101562 12.140625 -15.625 C 12.535156 -15.15625 12.835938 -14.6875 13.046875 -14.21875 L 13.1875 -14.21875 L 13.1875 -22.796875 L 17.921875 -22.796875 L 17.921875 0 L 13.25 0 L 13.25 -2.734375 L 13.046875 -2.734375 C 12.828125 -2.265625 12.515625 -1.796875 12.109375 -1.328125 C 11.703125 -0.867188 11.175781 -0.484375 10.53125 -0.171875 C 9.894531 0.128906 9.113281 0.28125 8.1875 0.28125 Z M 9.6875 -3.5 C 10.832031 -3.5 11.71875 -3.957031 12.34375 -4.875 C 12.976562 -5.800781 13.296875 -7.023438 13.296875 -8.546875 C 13.296875 -10.078125 12.984375 -11.289062 12.359375 -12.1875 C 11.734375 -13.09375 10.84375 -13.546875 9.6875 -13.546875 C 8.519531 -13.546875 7.628906 -13.082031 7.015625 -12.15625 C 6.398438 -11.238281 6.09375 -10.035156 6.09375 -8.546875 C 6.09375 -7.054688 6.398438 -5.84375 7.015625 -4.90625 C 7.640625 -3.96875 8.53125 -3.5 9.6875 -3.5 Z M 9.6875 -3.5 "/></g></g></g><g fill="#000000" fill-opacity="1"><g transform="translate(187.86487, 60.695866)"><g><path d="M 1.890625 0 L 1.890625 -17.09375 L 6.640625 -17.09375 L 6.640625 0 Z M 4.265625 -19.296875 C 3.566406 -19.296875 2.960938 -19.53125 2.453125 -20 C 1.953125 -20.476562 1.703125 -21.046875 1.703125 -21.703125 C 1.703125 -22.359375 1.953125 -22.921875 2.453125 -23.390625 C 2.960938 -23.859375 3.566406 -24.09375 4.265625 -24.09375 C 4.972656 -24.09375 5.578125 -23.859375 6.078125 -23.390625 C 6.585938 -22.921875 6.84375 -22.359375 6.84375 -21.703125 C 6.84375 -21.046875 6.585938 -20.476562 6.078125 -20 C 5.578125 -19.53125 4.972656 -19.296875 4.265625 -19.296875 Z M 4.265625 -19.296875 "/></g></g></g><g fill="#000000" fill-opacity="1"><g transform="translate(194.291254, 60.695866)"><g><path d="M 9.609375 0.328125 C 7.878906 0.328125 6.382812 -0.0351562 5.125 -0.765625 C 3.875 -1.503906 2.90625 -2.535156 2.21875 -3.859375 C 1.539062 -5.191406 1.203125 -6.734375 1.203125 -8.484375 C 1.203125 -10.242188 1.539062 -11.785156 2.21875 -13.109375 C 2.90625 -14.441406 3.875 -15.472656 5.125 -16.203125 C 6.382812 -16.941406 7.878906 -17.3125 9.609375 -17.3125 C 11.335938 -17.3125 12.832031 -16.941406 14.09375 -16.203125 C 15.351562 -15.472656 16.320312 -14.441406 17 -13.109375 C 17.6875 -11.785156 18.03125 -10.242188 18.03125 -8.484375 C 18.03125 -6.734375 17.6875 -5.191406 17 -3.859375 C 16.320312 -2.535156 15.351562 -1.503906 14.09375 -0.765625 C 12.832031 -0.0351562 11.335938 0.328125 9.609375 0.328125 Z M 9.640625 -3.34375 C 10.804688 -3.34375 11.691406 -3.832031 12.296875 -4.8125 C 12.910156 -5.789062 13.21875 -7.023438 13.21875 -8.515625 C 13.21875 -10.003906 12.910156 -11.238281 12.296875 -12.21875 C 11.691406 -13.207031 10.804688 -13.703125 9.640625 -13.703125 C 8.441406 -13.703125 7.535156 -13.207031 6.921875 -12.21875 C 6.316406 -11.238281 6.015625 -10.003906 6.015625 -8.515625 C 6.015625 -7.023438 6.316406 -5.789062 6.921875 -4.8125 C 7.535156 -3.832031 8.441406 -3.34375 9.640625 -3.34375 Z M 9.640625 -3.34375 "/></g></g></g></svg>